<svg xmlns="http://www.w3.org/2000/svg" width="64" height="64" id="cake"><g fill="none" fill-rule="evenodd"><path fill="#F8E6C4" d="M4.941 37.495h53.963v13.307a4.005 4.005 0 0 1-4.005 4.007H8.946a4.005 4.005 0 0 1-4.005-4.007V37.495Z"></path><path fill="#EE64A4" d="M58.577 27.668H5.268c-2.212 0-4.005 1.461-4.005 3.263v6.103c0 2.262 2.251 4.096 5.028 4.096 2.778 0 5.028-1.834 5.028-4.096h.197c0 2.262 2.25 4.096 5.028 4.096 2.777 0 5.028-1.834 5.028-4.096h.195c0 2.262 2.252 4.096 5.03 4.096 2.776 0 5.028-1.834 5.028-4.096h.195c0 2.262 2.252 4.096 5.028 4.096 2.778 0 5.03-1.834 5.03-4.096h.195c0 2.262 2.25 4.096 5.028 4.096 2.777 0 5.028-1.834 5.028-4.096h.196c0 2.262 2.251 4.096 5.029 4.096 2.777 0 5.028-1.834 5.028-4.096V30.93c0-1.802-1.793-3.263-4.005-3.263"></path><path fill="#F8E6C4" d="M29.22 27.634h5.475v-8.645H29.22z"></path><path fill="#FBAE3A" d="M34.682 13.854a2.726 2.726 0 1 1-5.449 0c0-1.506 2.724-7.123 2.724-7.123s2.725 5.617 2.725 7.123"></path><path fill="#010202" d="M58.904 50.802v-9.825c2.12-.482 3.678-2.063 3.678-3.943v-6.103c0-1.802-1.793-3.263-4.005-3.263h-6.052v9.366c-.14 16.017-12.772 17.775-12.772 17.775h15.146a4.005 4.005 0 0 0 4.005-4.007" opacity=".15"></path><path fill="#2E2E30" d="M61.32 37.034c0 1.561-1.69 2.833-3.767 2.833-2.076 0-3.764-1.272-3.764-2.833 0-.698-.566-1.264-1.263-1.264h-.196c-.698 0-1.264.566-1.264 1.264 0 1.561-1.689 2.833-3.765 2.833-2.075 0-3.765-1.272-3.765-2.833 0-.698-.566-1.264-1.263-1.264h-.196c-.697 0-1.263.566-1.263 1.264 0 1.561-1.689 2.833-3.765 2.833s-3.765-1.272-3.765-2.833c0-.698-.566-1.264-1.263-1.264h-.196c-.698 0-1.263.566-1.263 1.264 0 1.561-1.69 2.833-3.766 2.833s-3.765-1.272-3.765-2.833c0-.698-.566-1.264-1.263-1.264h-.195c-.698 0-1.264.566-1.264 1.264 0 1.561-1.689 2.833-3.766 2.833-2.075 0-3.765-1.272-3.765-2.833 0-.698-.565-1.264-1.263-1.264h-.195c-.697 0-1.263.566-1.263 1.264 0 1.561-1.69 2.833-3.766 2.833s-3.764-1.272-3.764-2.833V30.93c0-1.083 1.255-1.999 2.74-1.999h53.31c1.486 0 2.742.916 2.742 2v6.102Zm-3.68 5.356v8.413a2.746 2.746 0 0 1-2.741 2.743H8.946a2.746 2.746 0 0 1-2.742-2.743V42.39c.029 0 .057.004.087.004 2.113 0 3.986-.891 5.127-2.255 1.141 1.364 3.013 2.255 5.125 2.255s3.986-.891 5.127-2.255c1.141 1.364 3.014 2.255 5.126 2.255 2.113 0 3.985-.891 5.127-2.255 1.14 1.364 3.014 2.255 5.126 2.255 2.112 0 3.985-.891 5.126-2.255 1.142 1.364 3.014 2.255 5.126 2.255 2.112 0 3.985-.891 5.126-2.255 1.142 1.364 3.015 2.255 5.126 2.255.03 0 .058-.004.088-.004ZM30.485 26.37h2.948v-6.118h-2.948v6.118Zm.011-12.517c.002-.505.648-2.227 1.462-4.097.815 1.869 1.46 3.59 1.462 4.097 0 .806-.656 1.463-1.462 1.463a1.465 1.465 0 0 1-1.462-1.463Zm28.081 12.552H35.958v-7.417c0-.697-.566-1.263-1.263-1.263H32.88a3.99 3.99 0 0 0 3.067-3.872c0-1.666-2.184-6.294-2.853-7.674a1.263 1.263 0 0 0-2.272 0c-.67 1.38-2.852 6.008-2.852 7.674a3.99 3.99 0 0 0 3.066 3.872h-1.814c-.698 0-1.264.566-1.264 1.263v7.417H5.267C2.364 26.405 0 28.435 0 30.93v6.103c0 2.16 1.511 4.022 3.678 4.87v8.899a5.275 5.275 0 0 0 5.268 5.27h45.953a5.276 5.276 0 0 0 5.268-5.27v-8.9c2.167-.847 3.678-2.709 3.678-4.87v-6.102c0-2.496-2.363-4.526-5.269-4.526Z"></path></g></svg>