<svg xmlns="http://www.w3.org/2000/svg" width="64" height="64" id="macaron"><g fill="none" fill-rule="evenodd"><path fill="#FEFEFE" d="M55.932 30.615H27.65c-2.968 0-5.375-2.415-5.375-5.394v-.811c0-2.98 2.407-5.395 5.375-5.395h28.282c2.97 0 5.375 2.415 5.375 5.395v.811c0 2.979-2.406 5.394-5.375 5.394"></path><path fill="#2E2E30" d="M27.65 20.317c-2.248 0-4.078 1.836-4.078 4.092v.812c0 2.256 1.83 4.092 4.078 4.092h28.282c2.249 0 4.078-1.836 4.078-4.092v-.812c0-2.256-1.83-4.092-4.078-4.092H27.65Zm28.282 11.6H27.65c-3.679 0-6.672-3.004-6.672-6.696v-.812c0-3.692 2.993-6.695 6.672-6.695h28.282c3.68 0 6.673 3.003 6.673 6.695v.812c0 3.692-2.994 6.696-6.673 6.696Z"></path><path fill="#010202" d="M55.528 19.015h-3.935c3.192 0 5.78 2.597 5.78 5.8 0 3.204-2.588 5.8-5.78 5.8h3.935c3.192 0 5.78-2.596 5.78-5.8 0-3.203-2.588-5.8-5.78-5.8" opacity=".3"></path><path fill="#A863A8" d="M21.227 18.294c0-4.695 9.244-8.992 20.648-8.992s20.648 4.297 20.648 8.992l.012.108c0 1.474-1.322 2.67-2.952 2.67H24.167c-1.63 0-2.951-1.196-2.951-2.67"></path><path fill="#2E2E30" d="M22.514 18.459c.037.728.764 1.311 1.653 1.311h35.415c.89 0 1.617-.583 1.653-1.311l-.002-.023a1.32 1.32 0 0 1-.007-.142c0-4.331-10.403-7.69-19.35-7.69-8.95 0-19.351 3.359-19.351 7.69 0 .056-.004.111-.01.165m37.067 3.915H24.167c-2.343 0-4.249-1.782-4.249-3.972 0-.062.004-.123.013-.18C20.014 12.577 29.826 8 41.875 8 53.92 8 63.731 12.576 63.82 18.217l.006.042c.005.047.007.095.007.143 0 2.19-1.907 3.972-4.25 3.972"></path><path fill="#010202" d="M62.523 18.294c0-4.695-9.244-8.992-20.648-8.992-.935 0-1.853.032-2.754.087 10.1.623 17.893 4.594 17.893 8.905l.011.108c0 1.474-1.321 2.67-2.95 2.67h5.508c1.63 0 2.951-1.196 2.951-2.67l-.01-.108Z" opacity=".3"></path><path fill="#A863A8" d="M62.523 31.09c0 4.695-9.244 8.992-20.648 8.992s-20.648-4.297-20.648-8.992l-.012-.108c0-1.474 1.322-2.67 2.952-2.67h35.416c1.63 0 2.951 1.196 2.951 2.67"></path><path fill="#2E2E30" d="m22.514 30.924.003.022c.005.048.008.096.008.144 0 4.33 10.401 7.69 19.35 7.69 8.948 0 19.35-3.36 19.35-7.69 0-.057.004-.111.01-.166-.036-.727-.763-1.31-1.653-1.31H24.167c-.888 0-1.615.582-1.653 1.31m19.361 10.46c-12.045 0-21.855-4.577-21.944-10.217l-.005-.042a1.3 1.3 0 0 1-.008-.143c0-2.19 1.906-3.972 4.25-3.972h35.414c2.343 0 4.25 1.781 4.25 3.972 0 .062-.004.122-.013.18-.084 5.643-9.896 10.222-21.944 10.222"></path><path fill="#010202" d="M59.583 28.311h-2.592c-.483 4.545-9.53 8.612-20.625 8.612-5.038 0-9.653-.84-13.237-2.18 3.273 3.055 10.434 5.339 18.746 5.339 11.404 0 20.649-4.296 20.649-8.992l.01-.108c0-1.475-1.32-2.67-2.951-2.67" opacity=".3"></path><path fill="#FEFEFE" d="M39.003 44.28H8.813c-3.507 0-6.351-2.853-6.351-6.373s2.844-6.373 6.35-6.373h30.191c3.508 0 6.352 2.852 6.352 6.373 0 3.52-2.844 6.373-6.352 6.373"></path><path fill="#2E2E30" d="M8.813 32.835c-2.787 0-5.054 2.276-5.054 5.072 0 2.796 2.267 5.072 5.054 5.072h30.19c2.788 0 5.054-2.276 5.054-5.072 0-2.796-2.266-5.072-5.054-5.072H8.813Zm30.19 12.748H8.813c-4.217 0-7.649-3.444-7.649-7.676 0-4.233 3.432-7.676 7.65-7.676h30.19c4.217 0 7.648 3.443 7.648 7.676 0 4.232-3.43 7.676-7.649 7.676Z"></path><path fill="#010202" d="M39.003 31.533H34.68c3.508 0 6.352 2.854 6.352 6.374 0 3.52-2.844 6.374-6.352 6.374h4.324c3.508 0 6.352-2.854 6.352-6.374 0-3.52-2.844-6.374-6.352-6.374" opacity=".3"></path><path fill="#EE64A4" d="M1.31 30.74c0-5.16 10.158-9.881 22.69-9.881 12.531 0 22.69 4.721 22.69 9.881l.013.119c0 1.62-1.452 2.935-3.243 2.935H4.54c-1.79 0-3.243-1.314-3.243-2.935"></path><path fill="#2E2E30" d="M2.595 30.915c.036.874.895 1.577 1.946 1.577h38.918c1.05 0 1.908-.702 1.946-1.575l-.005-.038a1.234 1.234 0 0 1-.008-.139c0-4.05-9.148-8.579-21.392-8.579s-21.392 4.53-21.392 8.58c0 .058-.005.117-.013.174m40.864 4.18H4.541C2.037 35.095 0 33.195 0 30.86c0-.063.004-.125.014-.186C.09 24.537 10.822 19.557 24 19.557c13.173 0 23.9 4.976 23.986 11.108l.006.054c.005.047.008.093.008.14 0 2.335-2.037 4.236-4.54 4.236"></path><path fill="#010202" d="M46.69 30.74c0-5.16-10.158-9.881-22.69-9.881-1.027 0-2.036.034-3.027.096 11.1.684 19.663 5.049 19.663 9.785l.012.119c0 1.62-1.452 2.935-3.243 2.935h6.054c1.791 0 3.244-1.314 3.244-2.935l-.013-.119Z" opacity=".3"></path><path fill="#EE64A4" d="M46.69 44.802c0 5.16-10.158 9.882-22.69 9.882-12.531 0-22.69-4.722-22.69-9.882l-.013-.118c0-1.621 1.452-2.935 3.243-2.935h38.92c1.79 0 3.243 1.314 3.243 2.935"></path><path fill="#2E2E30" d="m2.595 44.625.005.038c.005.046.008.092.008.14 0 4.049 9.148 8.578 21.392 8.578s21.392-4.53 21.392-8.579c0-.059.005-.118.013-.174-.036-.875-.895-1.577-1.946-1.577H4.541c-1.05 0-1.908.701-1.946 1.574M24 55.985C10.827 55.985.1 51.009.014 44.877l-.006-.054a1.261 1.261 0 0 1-.008-.14c0-2.336 2.037-4.236 4.54-4.236h38.92c2.503 0 4.54 1.9 4.54 4.236 0 .064-.004.125-.014.186C47.91 51.005 37.178 55.985 24 55.985"></path><path fill="#010202" d="M43.46 41.749h-2.85c-.53 4.994-10.472 9.462-22.664 9.462-5.537 0-10.608-.921-14.546-2.396 3.598 3.359 11.465 5.868 20.6 5.868 12.532 0 22.69-4.721 22.69-9.88l.013-.119c0-1.621-1.452-2.935-3.244-2.935" opacity=".3"></path></g></svg>